<?xml version="1.0" encoding="UTF-8"?>
<!-- Generator: visioncortex VTracer 0.6.3 -->
<svg version="1.1" xmlns="http://www.w3.org/2000/svg" width="1238" height="1280">
<path d="M0 0 C408.54 0 817.08 0 1238 0 C1238 422.4 1238 844.8 1238 1280 C829.46 1280 420.92 1280 0 1280 C0 857.6 0 435.2 0 0 Z " fill="#E4232A" transform="translate(0,0)"/>
<path d="M0 0 C2.62 0.38 2.62 0.38 5 1 C0.96 8.38 -3.05 15.32 -8.4 21.84 C-10.7 24.95 -12.27 28.32 -13.86 31.84 C-15 34 -15 34 -16.52 35.5 C-18.87 37.88 -19.67 40.86 -20.84 43.94 C-22 46 -22 46 -24.04 47.01 C-26.18 47.83 -26.18 47.83 -26.84 49.99 C-27.01 50.76 -27.19 51.52 -27.38 52.31 C-28.47 56.1 -28.84 56.87 -32.06 59.5 C-35.27 62.23 -35.39 62.67 -36 66.56 C-36.38 68.94 -36.38 68.94 -37 71 C-38.99 72.35 -40.99 73.69 -43 75 C-43.99 77.27 -44.63 79.52 -45.29 81.91 C-46.22 84.66 -47.96 85.96 -50 88 C-50.5 89.49 -50.96 90.99 -51.38 92.5 C-52.64 96.77 -52.64 96.77 -55.94 98.88 C-60.11 101.77 -60.66 104.88 -62.04 109.64 C-62.52 110.81 -62.52 110.81 -63 112 C-64.49 112.5 -64.49 112.5 -66 113 C-67.03 115.2 -67.03 115.2 -67.81 117.81 C-69.63 122.78 -71.62 124.08 -76 127 C-76.29 129 -76.57 131.01 -76.66 133.03 C-77.24 136.4 -79.41 137.98 -82 140 C-82.66 140 -83.32 140 -84 140 C-84.12 140.61 -84.24 141.23 -84.37 141.86 C-84.53 142.67 -84.7 143.48 -84.88 144.31 C-85.04 145.11 -85.2 145.91 -85.37 146.74 C-86 149 -86 149 -88 152 C-88.66 152.23 -89.32 152.45 -90 152.69 C-92.14 153.79 -92.14 153.79 -92.56 155.76 C-92.86 157.18 -93.15 158.61 -93.44 160.03 C-94.24 162.86 -95.68 164.25 -98 166 C-98.99 166.33 -99.98 166.66 -101 167 C-101.1 167.7 -101.2 168.4 -101.3 169.12 C-101.45 170.03 -101.6 170.94 -101.75 171.88 C-101.89 172.78 -102.03 173.68 -102.17 174.62 C-103 177 -103 177 -104.96 178.02 C-105.63 178.34 -106.31 178.67 -107 179 C-108.16 181.26 -108.16 181.26 -108.94 183.88 C-110.71 188.77 -110.71 188.77 -113.56 191 C-116.45 193.37 -116.54 194.46 -117.38 198 C-118.55 202.67 -118.55 202.67 -120.7 204.22 C-121.34 204.5 -121.97 204.78 -122.62 205.06 C-123.74 205.7 -124.85 206.34 -126 207 C-126.52 209.31 -126.56 211.47 -126.64 213.84 C-127.24 217.45 -130.22 218.83 -133 221 C-133.95 223.03 -134.6 225.06 -135.29 227.2 C-136.28 229.7 -137.64 230.78 -140 232 C-140.66 232 -141.32 232 -142 232 C-142.11 232.69 -142.22 233.37 -142.33 234.08 C-142.49 234.98 -142.65 235.88 -142.81 236.81 C-142.96 237.71 -143.11 238.6 -143.27 239.52 C-144.06 242.21 -144.79 243.32 -147 245 C-147.66 245 -148.32 245 -149 245 C-149.23 246.03 -149.45 247.06 -149.69 248.12 C-151.12 253.21 -154.31 256.31 -158 260 C-158.25 261.26 -158.5 262.52 -158.75 263.81 C-159.65 267.8 -161.12 269.07 -164.48 271.45 C-167.17 274.2 -167.9 277.85 -168.95 281.48 C-170.18 284.42 -171.46 285.17 -174 287 C-175.14 289.08 -175.14 289.08 -175.94 291.38 C-177.64 295.54 -179.82 297.82 -183 301 C-183.31 302.15 -183.62 303.31 -183.94 304.5 C-185.28 308.93 -187.5 310.09 -191 313 C-191.33 314.15 -191.66 315.31 -192 316.5 C-193 320 -193 320 -196 322.38 C-199.65 325.57 -199.7 327.33 -200.44 331.91 C-201.3 335.11 -203.28 336.3 -206 338 C-208.35 339.93 -208.35 339.93 -208.38 343.38 C-209.06 347.37 -209.82 348.59 -213 351 C-213.66 351 -214.32 351 -215 351 C-215.21 351.86 -215.21 351.86 -215.42 352.74 C-217.87 362.25 -217.87 362.25 -221.06 364.38 C-221.7 364.58 -222.34 364.79 -223 365 C-225.43 366.99 -225.43 366.99 -225.25 370.88 C-225.46 373.05 -225.46 373.05 -226 375 C-227.97 376.37 -229.98 377.7 -232 379 C-232.96 380.96 -233.57 382.91 -234.22 384.99 C-235.45 388.16 -237.84 390.41 -240 393 C-240.88 395.03 -241.58 397.05 -242.23 399.17 C-243.14 401.33 -244.19 402.52 -246 404 C-246.66 404 -247.32 404 -248 404 C-248 404.66 -248 405.32 -248 406 C-248.66 406 -249.32 406 -250 406 C-250.08 407.01 -250.17 408.02 -250.25 409.06 C-250.84 413.38 -252.69 416.35 -255 420 C-255.66 420 -256.32 420 -257 420 C-257.34 421.61 -257.34 421.61 -257.69 423.25 C-259.15 427.43 -260.41 428.58 -264 431 C-266.27 432.87 -266.27 432.87 -266.38 435.81 C-267.22 440.11 -269.31 442.57 -272.62 445.38 C-274.29 447.11 -274.29 447.11 -274.88 450.44 C-276 454 -276 454 -278.5 455.88 C-281.37 458.31 -281.35 458.89 -281.88 462.44 C-282.58 466.64 -282.58 466.64 -284.57 468.34 C-285.18 468.7 -285.8 469.07 -286.44 469.44 C-289.94 471.5 -290.73 473.29 -291.81 477.19 C-292 478.05 -292.2 478.91 -292.39 479.79 C-293 482 -293 482 -295 484 C-295.99 484 -296.98 484 -298 484 C-298.06 485.27 -298.06 485.27 -298.12 486.56 C-299.5 491.95 -303.15 495.15 -307 499 C-307.08 500.09 -307.17 501.19 -307.25 502.31 C-308.22 507.09 -310.23 508.08 -314 511 C-315.41 513.68 -315.96 515.69 -316.31 518.69 C-316.54 519.45 -316.77 520.21 -317 521 C-318.66 521.68 -320.33 522.35 -322 523 C-323.55 525.72 -324.01 527.5 -323.94 530.62 C-324 533 -324 533 -325.25 534.69 C-327 536 -327 536 -329.05 536.81 C-331.19 537.82 -331.19 537.82 -331.62 540.02 C-331.7 540.8 -331.79 541.58 -331.88 542.38 C-332.31 544.84 -332.31 544.84 -333 547 C-334.99 548.35 -336.99 549.69 -339 551 C-339.98 553.3 -340.61 555.54 -341.16 557.98 C-342.25 560.61 -343.49 560.84 -346 562 C-346.33 562.99 -346.66 563.98 -347 565 C-347.66 565 -348.32 565 -349 565 C-348.92 565.89 -348.83 566.77 -348.75 567.69 C-349.12 572.58 -351.61 574.73 -355.12 577.94 C-357.43 580.47 -358.09 582.73 -359 586 C-359.33 586.99 -359.66 587.98 -360 589 C-360.99 589.33 -361.98 589.66 -363 590 C-363.81 591.94 -363.81 591.94 -364.31 594.25 C-365.76 599.12 -368.11 600.76 -372 604 C-372.99 606.28 -373.66 608.51 -374.26 610.91 C-375.11 613.3 -376.03 614.43 -378 616 C-378.66 616 -379.32 616 -380 616 C-380.27 617.03 -380.54 618.06 -380.81 619.12 C-381.83 622.66 -383.11 625.82 -385 629 C-385.99 629.33 -386.98 629.66 -388 630 C-389.43 632.22 -389.98 633.87 -390.31 636.5 C-391 639 -391 639 -393.31 640.69 C-396.2 643.17 -396.73 644.45 -398 647.94 C-399.62 652.4 -401.49 654.75 -405 658 C-406.07 659.74 -407.01 661.52 -407.96 663.33 C-409 665 -409 665 -411.69 667.25 C-415.13 670.81 -415.13 670.81 -415 681 C-513.01 681 -611.02 681 -712 681 C-712 618.96 -712 556.92 -712 493 C-708.7 492.01 -705.4 491.02 -702 490 C-701.01 488.02 -701.01 488.02 -700 486 C-696.97 482.13 -693.38 480.69 -688.93 478.93 C-686.82 478.16 -686.82 478.16 -686 476 C-684.61 475.37 -683.18 474.79 -681.75 474.25 C-677.17 472.32 -675.14 469.86 -672 466 C-670.09 464.87 -668.14 463.98 -666.12 463.06 C-661.57 460.78 -657.48 457.57 -654 453.88 C-651.55 451.58 -648.98 450.49 -645.96 449.08 C-643.16 447.54 -641.21 445.28 -639 443 C-638.01 443 -637.02 443 -636 443 C-636 442.34 -636 441.68 -636 441 C-635.48 440.76 -634.96 440.52 -634.43 440.27 C-630.17 438.22 -626.67 436.02 -623 433 C-622.34 433 -621.68 433 -621 433 C-621 432.34 -621 431.68 -621 431 C-620.01 431 -619.02 431 -618 431 C-618 430.34 -618 429.68 -618 429 C-616.36 427.95 -614.69 426.96 -613 426 C-611.37 424.87 -609.74 423.72 -608.12 422.56 C-605.13 420.44 -602.16 418.45 -598.94 416.69 C-595.93 415.32 -595.93 415.32 -595 413 C-593.35 411.97 -591.68 410.97 -590 410 C-588.43 408.91 -586.87 407.8 -585.31 406.69 C-581.89 404.26 -578.44 402.04 -574.81 399.94 C-571.6 398.06 -568.79 396.09 -566 393.62 C-563 391 -563 391 -561 391 C-561 390.34 -561 389.68 -561 389 C-560.01 389 -559.02 389 -558 389 C-557.79 388.4 -557.57 387.8 -557.35 387.18 C-555.51 384.21 -553.54 383.54 -550.38 382.12 C-545.02 379.58 -540.59 376.72 -536 373 C-527.67 366.46 -527.67 366.46 -523 365 C-523 364.34 -523 363.68 -523 363 C-521.45 362.13 -521.45 362.13 -519.88 361.25 C-513.3 357.62 -513.3 357.62 -508.06 352.38 C-505.37 349.28 -502.94 348.83 -499 348 C-499 347.34 -499 346.68 -499 346 C-498.01 346 -497.02 346 -496 346 C-496 345.34 -496 344.68 -496 344 C-495.37 343.72 -494.74 343.44 -494.09 343.15 C-488.6 340.58 -484.27 337.77 -479.82 333.65 C-473.58 328 -473.58 328 -470 328 C-470 327.34 -470 326.68 -470 326 C-468.35 325.67 -466.7 325.34 -465 325 C-465 324.34 -465 323.68 -465 323 C-463.36 321.96 -461.69 320.96 -460 320 C-458.26 318.75 -456.53 317.47 -454.81 316.19 C-451.26 313.57 -447.69 311.15 -443.88 308.94 C-437.94 305.47 -432.31 301.56 -427.69 296.44 C-424.15 293.23 -420.24 291.53 -415.96 289.48 C-409.5 286.31 -409.5 286.31 -405 281 C-403.36 279.96 -401.69 278.97 -400 278 C-390.76 272.39 -381.66 266.71 -373.67 259.39 C-371.61 257.67 -369.52 256.89 -367 256 C-366.15 255.32 -365.31 254.64 -364.44 253.94 C-362 252 -362 252 -359.81 251.5 C-359.21 251.34 -358.62 251.17 -358 251 C-357.72 250.39 -357.43 249.77 -357.14 249.14 C-355.77 246.57 -354.48 245.73 -352 244.25 C-351.3 243.82 -350.6 243.39 -349.88 242.95 C-348 242 -348 242 -346 242 C-346 241.34 -346 240.68 -346 240 C-343.81 238.55 -343.81 238.55 -341 237 C-334.03 233.03 -334.03 233.03 -327.62 228.25 C-325.41 226.35 -323.59 225.25 -321 224 C-320.67 223.34 -320.34 222.68 -320 222 C-318.67 221.33 -317.33 220.67 -316 220 C-315.67 219.34 -315.34 218.68 -315 218 C-313.33 217.07 -313.33 217.07 -311.25 216.12 C-307.74 214.44 -305.01 212.48 -302 210 C-299.94 208.71 -297.87 207.47 -295.77 206.25 C-293.71 204.95 -293.71 204.95 -292 202 C-290.23 200.97 -290.23 200.97 -288.19 200.06 C-284.69 198.41 -281.99 196.47 -279 194 C-277 192.71 -274.96 191.48 -272.93 190.24 C-270.78 188.91 -270.78 188.91 -268.12 186.69 C-266 185 -266 185 -264 185 C-264 184.34 -264 183.68 -264 183 C-263.01 183 -262.02 183 -261 183 C-261 182.34 -261 181.68 -261 181 C-259.95 180.4 -258.9 179.8 -257.81 179.19 C-257.18 178.82 -256.54 178.46 -255.88 178.08 C-254.32 177.19 -252.76 176.31 -251.19 175.44 C-248.74 174.03 -248.74 174.03 -247 171 C-241.67 168 -241.67 168 -239 168 C-239 167.34 -239 166.68 -239 166 C-237.36 164.95 -235.69 163.96 -234 163 C-233.28 162.44 -232.56 161.89 -231.81 161.31 C-230 160 -230 160 -228 160 C-228 159.34 -228 158.68 -228 158 C-227.01 158 -226.02 158 -225 158 C-225 157.34 -225 156.68 -225 156 C-218.25 152 -218.25 152 -216 152 C-216 151.34 -216 150.68 -216 150 C-214.34 148.99 -212.67 147.99 -211 147 C-210.34 146.01 -209.68 145.02 -209 144 C-206.79 142.75 -206.79 142.75 -204.19 141.56 C-200.35 139.73 -197.25 137.77 -194 135 C-193.32 134.69 -192.64 134.38 -191.94 134.06 C-189.75 133.04 -189.75 133.04 -188.06 130.44 C-186 128 -186 128 -183.25 127.19 C-182.51 127.13 -181.76 127.06 -181 127 C-181 126.34 -181 125.68 -181 125 C-180.01 125 -179.02 125 -178 125 C-178 124.34 -178 123.68 -178 123 C-176.54 122.16 -175.09 121.33 -173.62 120.5 C-172.81 120.04 -172 119.57 -171.16 119.09 C-169 118 -169 118 -167 118 C-166.75 117.36 -166.5 116.72 -166.25 116.06 C-165 114 -165 114 -162.88 113.25 C-162.26 113.17 -161.64 113.09 -161 113 C-161 112.34 -161 111.68 -161 111 C-160.46 110.76 -159.91 110.52 -159.36 110.27 C-154.92 108.32 -154.92 108.32 -151.56 105 C-149.31 102.11 -146.43 101.32 -143.06 100.03 C-140.68 99.05 -140.68 99.05 -139 96 C-136.98 94.79 -136.98 94.79 -134.62 93.62 C-131.64 92.04 -130.11 91.14 -128 88.44 C-125.47 85.35 -122.97 84.52 -119.32 83.05 C-116.99 81.99 -115.11 80.78 -113.06 79.25 C-110 77 -110 77 -108 77 C-108 76.34 -108 75.68 -108 75 C-106.37 73.95 -104.69 72.96 -103 72 C-101.45 70.93 -99.91 69.85 -98.38 68.75 C-93.93 65.61 -89.39 62.7 -84.74 59.87 C-82.54 58.37 -80.66 56.86 -78.68 55.11 C-74.99 51.88 -71.02 49.38 -66.81 46.88 C-62.36 44.22 -58.62 41.75 -55 38 C-54.34 38 -53.68 38 -53 38 C-53 37.34 -53 36.68 -53 36 C-51.68 36 -50.36 36 -49 36 C-49 35.34 -49 34.68 -49 34 C-48.01 34 -47.02 34 -46 34 C-45.34 32.68 -44.68 31.36 -44 30 C-43.01 30 -42.02 30 -41 30 C-41 29.34 -41 28.68 -41 28 C-40.01 28 -39.02 28 -38 28 C-38 27.34 -38 26.68 -38 26 C-37.01 26 -36.02 26 -35 26 C-35 25.34 -35 24.68 -35 24 C-34.01 24 -33.02 24 -32 24 C-32 23.34 -32 22.68 -32 22 C-31.48 21.74 -30.96 21.49 -30.42 21.22 C-23.54 17.65 -17.89 12.99 -12 8 C-8.69 5.26 -6.01 3.52 -2 2 C-1.34 1.34 -0.68 0.68 0 0 Z " fill="#FCFCFC" transform="translate(712,599)"/>
<path d="M0 0 C1.21 0.03 1.21 0.03 2.44 0.06 C4.62 3.67 5.59 6.54 5.81 10.69 C6.2 15.98 7.96 20.11 10.11 24.92 C12.33 30.16 13.85 35.6 15.44 41.06 C17.99 49.81 20.86 58.44 23.77 67.07 C24.33 68.75 24.88 70.43 25.43 72.11 C26.21 74.4 27.04 76.65 27.91 78.91 C29.47 83.05 30.73 87.25 31.94 91.5 C33.4 96.56 34.91 101.57 36.62 106.55 C38.07 111.01 39.35 115.53 40.64 120.04 C41.73 123.81 42.95 127.42 44.44 131.06 C44.78 132.39 45.12 133.73 45.44 135.06 C46.16 136.99 46.88 138.93 47.61 140.85 C49.46 145.8 51.08 150.79 52.5 155.88 C53.26 158.91 53.26 158.91 54.44 160.82 C56.26 164.92 56.25 169.51 56.68 173.95 C57.1 177.11 57.1 177.11 59.26 178.43 C59.98 178.64 60.7 178.85 61.44 179.06 C62 179.24 62.57 179.41 63.16 179.59 C66.18 180.21 69.04 180.19 72.12 180.19 C72.8 180.19 73.47 180.19 74.16 180.19 C76.4 180.2 78.65 180.2 80.9 180.19 C82.51 180.19 84.12 180.2 85.73 180.2 C90.11 180.2 94.48 180.2 98.86 180.2 C103.44 180.19 108.01 180.2 112.59 180.2 C120.27 180.2 127.96 180.2 135.64 180.19 C144.53 180.19 153.42 180.19 162.31 180.19 C169.94 180.2 177.57 180.2 185.2 180.2 C189.75 180.2 194.31 180.2 198.87 180.2 C203.15 180.2 207.44 180.2 211.72 180.19 C213.3 180.19 214.87 180.19 216.44 180.2 C218.59 180.2 220.73 180.19 222.88 180.19 C224.08 180.19 225.28 180.19 226.52 180.19 C229.5 180.19 229.5 180.19 232.44 179.06 C233.9 179.04 235.36 179.07 236.82 179.15 C237.65 179.19 238.49 179.24 239.36 179.28 C240.23 179.33 241.1 179.38 242 179.44 C243.31 179.5 243.31 179.5 244.65 179.57 C251.18 179.93 251.18 179.93 253.44 181.06 C253.44 182.05 253.44 183.04 253.44 184.06 C252.78 184.06 252.12 184.06 251.44 184.06 C251.44 184.72 251.44 185.38 251.44 186.06 C246.12 190.97 240.31 194.77 233.44 197.06 C233.15 197.68 232.86 198.3 232.56 198.94 C231.06 201.77 229.27 202.65 226.44 204.06 C225.78 204.06 225.12 204.06 224.44 204.06 C224.44 204.72 224.44 205.38 224.44 206.06 C223.45 206.06 222.46 206.06 221.44 206.06 C221.07 207.02 221.07 207.02 220.69 208 C219.44 210.06 219.44 210.06 217.31 210.81 C216.69 210.89 216.08 210.98 215.44 211.06 C215.44 211.72 215.44 212.38 215.44 213.06 C214.53 213.45 213.62 213.85 212.69 214.25 C209.37 215.82 209.37 215.82 207.56 218.5 C205.05 221.53 202.7 222.62 199.14 224.17 C197.25 224.95 197.25 224.95 196.44 227.06 C195.08 227.68 193.7 228.23 192.31 228.75 C187.83 230.63 185.11 233.03 181.95 236.67 C180.44 238.06 180.44 238.06 177.44 238.06 C177.44 238.72 177.44 239.38 177.44 240.06 C173.68 244.18 169.28 246.81 164.28 249.13 C161.7 250.43 159.64 252.21 157.44 254.06 C155.98 255.02 155.98 255.02 154.5 256 C151.36 258.04 151.36 258.04 148.38 260.62 C145.8 262.76 143.29 264.35 140.44 266.06 C138.99 267.28 137.55 268.5 136.11 269.73 C133.63 271.7 130.95 273.3 128.25 274.95 C124.91 277 122.01 279.43 119.06 282 C115.05 285.46 110.98 288.32 106.19 290.62 C103.19 291.91 103.19 291.91 101.44 295.06 C100.78 295.06 100.12 295.06 99.44 295.06 C99.03 300.24 98.85 303.63 101.69 308.06 C104.88 313.14 105.91 318.49 107.09 324.3 C107.89 328.61 107.89 328.61 110.44 332.06 C111.15 334.38 111.15 334.38 111.8 337.26 C112.17 338.83 112.17 338.83 112.55 340.43 C113.05 342.62 113.55 344.82 114.05 347.01 C115.57 353.66 115.57 353.66 118.49 359.77 C120.86 363.77 121.75 367.5 122.69 372 C122.86 372.78 123.03 373.56 123.21 374.36 C123.63 376.26 124.04 378.16 124.44 380.06 C125.1 380.06 125.76 380.06 126.44 380.06 C128.19 385.73 129.31 391.43 130.36 397.27 C131.28 400.5 132.29 402.85 133.84 405.78 C136.7 411.27 138.19 416.81 139.62 422.81 C140.12 424.81 140.61 426.8 141.11 428.8 C141.33 429.72 141.56 430.64 141.8 431.6 C142.54 434.47 143.46 437.26 144.44 440.06 C145.05 442.08 145.65 444.1 146.25 446.12 C148.99 455.04 151.95 463.98 156.64 472.09 C157.81 475 158.07 477.96 158.44 481.06 C143.96 477.87 143.96 477.87 139.68 471.68 C137.77 469.19 135.29 468.22 132.44 467.06 C132.44 466.4 132.44 465.74 132.44 465.06 C131.92 464.84 131.4 464.62 130.86 464.39 C127.52 462.56 124.65 460.19 121.69 457.81 C120.43 456.81 119.17 455.81 117.91 454.82 C117.01 454.1 117.01 454.1 116.09 453.37 C113.51 451.33 110.88 449.35 108.23 447.39 C106.95 446.45 105.69 445.48 104.43 444.51 C101.35 442.15 98.36 439.95 94.94 438.12 C91.43 436.2 88.64 433.73 85.67 431.06 C77.45 423.53 77.45 423.53 68 417.75 C64.6 416.14 63.03 414.66 60.44 412.06 C59.43 411.73 58.42 411.4 57.38 411.06 C54.08 409.94 53.09 409.08 51.44 406.06 C51.44 405.07 51.44 404.08 51.44 403.06 C50.71 402.96 49.98 402.86 49.23 402.76 C46.11 401.98 44.33 400.84 41.75 398.94 C40.88 398.31 40.02 397.68 39.12 397.04 C38.24 396.38 37.35 395.73 36.44 395.06 C29.6 390.13 29.6 390.13 22.38 385.81 C19.44 384.06 19.44 384.06 18.44 381.06 C16.44 379.85 16.44 379.85 14.44 379.06 C14.44 378.4 14.44 377.74 14.44 377.06 C13.74 377 13.04 376.94 12.31 376.88 C9.09 375.97 7.51 374.4 5.05 372.22 C2.28 370.23 -0.23 370.06 -3.56 370.06 C-6.41 371.49 -7.36 372.67 -8.81 375.5 C-11.33 379.18 -14.57 380.31 -18.56 382.06 C-19.9 382.72 -21.23 383.39 -22.56 384.06 C-22.56 384.72 -22.56 385.38 -22.56 386.06 C-23.49 386.48 -24.42 386.89 -25.38 387.31 C-28.56 389.06 -29.48 390.25 -31.56 393.06 C-32.68 393.48 -32.68 393.48 -33.81 393.91 C-37.09 395.28 -39.3 397.13 -42 399.44 C-47.92 404.42 -47.92 404.42 -51.12 406.44 C-53.79 407.99 -53.79 407.99 -55.56 411.06 C-57.25 411.76 -58.93 412.45 -60.63 413.12 C-65.07 415.28 -68.55 418.93 -71.81 422.56 C-75.23 425.67 -78.93 427.55 -83.04 429.63 C-85.33 430.93 -86.75 432.2 -88.56 434.06 C-89.22 434.06 -89.88 434.06 -90.56 434.06 C-90.56 434.72 -90.56 435.38 -90.56 436.06 C-91.47 436.45 -92.38 436.85 -93.31 437.25 C-96.66 438.83 -96.66 438.83 -98.5 441.62 C-101.18 444.79 -103.63 445.02 -107.56 446.06 C-107.89 447.05 -108.22 448.04 -108.56 449.06 C-110.75 450.45 -113.02 451.54 -115.34 452.68 C-117.78 454.2 -118.86 455.78 -120.56 458.06 C-122.57 459.26 -122.57 459.26 -124.69 460.19 C-127.77 461.42 -127.77 461.42 -129.56 464.06 C-131.23 465.06 -132.9 466.06 -134.56 467.06 C-134.89 467.72 -135.22 468.38 -135.56 469.06 C-136.49 469.5 -137.42 469.93 -138.38 470.38 C-141.8 472.19 -143.21 474.06 -145.56 477.06 C-146.55 477.06 -147.54 477.06 -148.56 477.06 C-148.56 477.72 -148.56 478.38 -148.56 479.06 C-152.99 481.15 -152.99 481.15 -155.88 480.69 C-156.71 480.38 -156.71 480.38 -157.56 480.06 C-158.88 476.44 -158.25 474.39 -156.81 470.88 C-156.47 469.99 -156.12 469.11 -155.77 468.21 C-154.56 466.06 -154.56 466.06 -151.56 465.06 C-151.57 464.48 -151.58 463.89 -151.59 463.29 C-151.33 455.81 -149.14 449.69 -146.27 442.87 C-144.23 438 -142.72 433.16 -141.39 428.05 C-139.83 422.42 -137.88 416.91 -136 411.38 C-132.96 402.65 -132.96 402.65 -130.47 393.75 C-129.45 389.61 -128.09 385.69 -126.62 381.69 C-124.69 376.31 -122.86 370.94 -121.27 365.45 C-119.3 358.82 -117.03 352.29 -114.62 345.81 C-112.66 340.48 -110.97 335.07 -109.31 329.63 C-108.21 326.03 -107 322.54 -105.56 319.06 C-104.53 315.96 -103.5 312.86 -102.5 309.75 C-102.14 308.64 -101.78 307.53 -101.4 306.39 C-100.57 303.1 -100.32 300.43 -100.56 297.06 C-101.73 295.4 -101.73 295.4 -103.56 294.06 C-104.26 293.28 -104.97 292.5 -105.69 291.69 C-108.76 288.88 -111.77 287.2 -115.48 285.37 C-117.83 283.89 -118.94 282.29 -120.56 280.06 C-122.3 279.07 -124.03 278.07 -125.8 277.14 C-128.44 275.53 -130.38 273.24 -132.56 271.06 C-133.39 270.73 -134.21 270.4 -135.06 270.06 C-138.36 268.74 -140.09 266.6 -142.56 264.06 C-144.55 262.71 -146.55 261.38 -148.56 260.06 C-149.53 259.22 -150.5 258.37 -151.5 257.5 C-154.03 255.48 -155.48 254.59 -158.38 253.5 C-159.43 253.03 -160.48 252.55 -161.56 252.06 C-162.19 250 -162.19 250 -162.56 248.06 C-164.82 246.99 -164.82 246.99 -167.56 246.06 C-169.59 244.77 -171.59 243.44 -173.56 242.06 C-175.05 241.07 -175.05 241.07 -176.56 240.06 C-176.56 239.4 -176.56 238.74 -176.56 238.06 C-177.4 237.88 -177.4 237.88 -178.25 237.69 C-183.6 236.24 -186.94 234.1 -191.01 230.4 C-192.54 228.97 -192.54 228.97 -194.56 228.06 C-194.56 227.4 -194.56 226.74 -194.56 226.06 C-195.22 226.06 -195.88 226.06 -196.56 226.06 C-196.56 225.4 -196.56 224.74 -196.56 224.06 C-197.67 223.67 -197.67 223.67 -198.8 223.26 C-201.55 222.07 -203.44 220.77 -205.75 218.88 C-210.54 215.04 -215.5 211.53 -220.56 208.06 C-221.18 207.64 -221.79 207.21 -222.42 206.77 C-224.81 205.13 -226.79 203.99 -229.56 203.06 C-230.28 202.13 -231.01 201.21 -231.75 200.25 C-233.71 197.78 -235.29 196.55 -238.19 195.31 C-244.16 192.62 -249.19 187.88 -253.56 183.06 C-253.56 182.07 -253.56 181.08 -253.56 180.06 C-250.58 179.87 -247.6 179.68 -244.62 179.5 C-243.77 179.44 -242.92 179.39 -242.05 179.33 C-241.24 179.28 -240.43 179.23 -239.6 179.18 C-238.85 179.14 -238.1 179.09 -237.33 179.04 C-235.56 179.06 -235.56 179.06 -234.56 180.06 C-232.34 180.17 -230.1 180.21 -227.87 180.22 C-227.17 180.23 -226.46 180.23 -225.73 180.24 C-223.34 180.25 -220.96 180.26 -218.57 180.27 C-216.86 180.28 -215.16 180.29 -213.45 180.3 C-208.81 180.32 -204.17 180.35 -199.53 180.37 C-194.68 180.39 -189.84 180.42 -184.99 180.44 C-175.81 180.49 -166.62 180.54 -157.44 180.58 C-146.99 180.63 -136.54 180.68 -126.08 180.74 C-104.58 180.85 -83.07 180.96 -61.56 181.06 C-61.56 180.4 -61.56 179.74 -61.56 179.06 C-60.9 179.06 -60.24 179.06 -59.56 179.06 C-59.43 178.22 -59.43 178.22 -59.3 177.37 C-58.4 172.22 -57.07 167.46 -55.25 162.56 C-53.24 157.14 -51.57 151.71 -50.06 146.12 C-46.86 134.27 -42.85 122.73 -38.68 111.18 C-37.94 109.12 -37.23 107.04 -36.54 104.96 C-35.65 102.33 -34.65 99.81 -33.56 97.25 C-32.31 94.15 -31.28 91.21 -30.62 87.94 C-27.7 73.43 -22.04 59.2 -17.25 45.22 C-14.19 36.25 -11.59 27.21 -9.11 18.07 C-4.21 0.1 -4.21 0.1 0 0 Z " fill="#FCFCFC" transform="translate(942.5625,50.9375)"/>
<path d="M0 0 C0.99 0 1.98 0 3 0 C3 41.58 3 83.16 3 126 C-44.85 126 -92.7 126 -142 126 C-142 125.34 -142 124.68 -142 124 C-141.05 123.69 -140.1 123.38 -139.12 123.06 C-136.14 122.13 -136.14 122.13 -134 121 C-129.4 120.85 -125.51 121.1 -121 122 C-119.52 121.51 -119.52 121.51 -118 121 C-116.42 120.58 -114.83 120.16 -113.25 119.75 C-100 116.18 -100 116.18 -87.44 110.75 C-84 109 -84 109 -80.62 108.5 C-79.76 108.34 -78.89 108.17 -78 108 C-76.89 106.12 -76.89 106.12 -76 104 C-73.75 102.41 -71.44 101.21 -68.96 100.03 C-68.25 99.69 -67.54 99.35 -66.81 99 C-66.14 98.69 -65.46 98.38 -64.77 98.06 C-62.68 96.98 -62.68 96.98 -61 94 C-60.01 94 -59.02 94 -58 94 C-58 93.34 -58 92.68 -58 92 C-57.17 91.65 -56.35 91.3 -55.5 90.94 C-49.07 87.73 -43.96 82.09 -39 77 C-38.42 76.48 -37.84 75.96 -37.25 75.42 C-33.97 72.39 -31.76 70.04 -30.38 65.75 C-29 62 -29 62 -26.44 60.5 C-23.55 59.12 -23.55 59.12 -23.06 55.12 C-22.93 54.41 -22.79 53.7 -22.66 52.97 C-21.73 50.19 -19.75 49.12 -17.44 47.46 C-15 44.99 -14.66 41.84 -13.85 38.54 C-12.93 35.8 -11.79 34.2 -9.94 32 C-7.05 28.41 -6.24 25.65 -5.57 21.14 C-4.78 16.8 -3.58 12.61 -2.38 8.38 C-2.14 7.56 -1.91 6.74 -1.68 5.89 C-1.12 3.93 -0.56 1.96 0 0 Z " fill="#FCFBFB" transform="translate(1235,1154)"/>
<path d="M0 0 C40.59 0 81.18 0 123 0 C123 41.25 123 82.5 123 125 C122.34 125 121.68 125 121 125 C121 124.34 121 123.68 121 123 C120.34 123 119.68 123 119 123 C118.67 121.82 118.35 120.63 118.01 119.41 C117.11 116.16 116.21 112.91 115.29 109.66 C114.55 107.02 113.84 104.38 113.18 101.72 C111.94 96.62 111.94 96.62 108.38 92.94 C106 91 106 91 105.6 88.98 C105.49 87.41 105.39 85.83 105.3 84.26 C104.84 80.78 103.23 78.63 101 76 C99.52 75.5 99.52 75.5 98 75 C97.27 73.34 96.54 71.67 95.89 69.97 C94.94 67.86 93.78 66.21 92.38 64.38 C90.31 61.63 89.32 59.49 89 56 C88.34 56 87.68 56 87 56 C86.62 55.12 86.23 54.23 85.84 53.32 C83.82 49.68 81.69 47.55 78.56 44.81 C77.14 43.55 77.14 43.55 75.69 42.27 C73.11 40.03 73.11 40.03 70.65 38.32 C70.11 37.89 69.56 37.45 69 37 C69 36.34 69 35.68 69 35 C68.26 34.74 67.52 34.48 66.76 34.21 C63.97 32.99 62.13 31.64 59.81 29.69 C55.83 26.48 51.81 24.28 47.2 22.12 C45 21 45 21 42.5 18.94 C38.72 16.01 34.44 14.66 30 13 C28.31 12.32 26.62 11.63 24.94 10.94 C20.35 9.1 15.71 7.5 11 6 C11 5.34 11 4.68 11 4 C10.37 3.96 9.75 3.93 9.1 3.89 C8.28 3.82 7.47 3.76 6.62 3.69 C5.81 3.63 5 3.57 4.16 3.51 C2 3 2 3 0 0 Z " fill="#FCFBFC" transform="translate(1115,0)"/>
<path d="M0 0 C41.91 0 83.82 0 127 0 C126.67 0.66 126.34 1.32 126 2 C125.01 2 124.02 2 123 2 C123 2.66 123 3.32 123 4 C122.13 3.96 121.27 3.92 120.38 3.88 C114.41 4.1 109.05 6.72 103.56 8.94 C102.93 9.19 102.3 9.44 101.65 9.7 C95.96 11.99 90.27 14.31 84.75 17 C83.78 17.46 83.78 17.46 82.8 17.94 C80.95 18.92 80.95 18.92 79.63 20.44 C76.65 23.29 72.71 24.66 69.01 26.4 C65.99 28.01 63.63 29.83 61 32 C60.04 32.62 59.09 33.24 58.11 33.88 C54.55 36.31 51.46 39.01 48.31 41.94 C47.74 42.45 47.18 42.96 46.59 43.49 C43.39 46.44 41.18 49.19 39 53 C38.2 53.41 37.39 53.83 36.56 54.25 C33.15 56.58 32.45 59.13 31.09 62.94 C30 65 30 65 27.97 66 C25.82 66.83 25.82 66.83 25.13 69.02 C24.94 69.8 24.76 70.58 24.56 71.38 C23.29 75.78 23.29 75.78 20.44 77.94 C17.54 80.39 17.6 81.19 17.06 84.81 C16.33 89.71 14.71 91.92 11.32 95.41 C9.37 97.76 9.26 100.02 9 103 C8.36 104.68 7.69 106.34 7 108 C6.69 109.11 6.38 110.23 6.06 111.38 C4.97 115.11 3.59 118.46 2 122 C1.34 122 0.68 122 0 122 C0 81.74 0 41.48 0 0 Z " fill="#FCFCFC" transform="translate(0,0)"/>
<path d="M0 0 C2.62 2.62 2.58 4.49 3.12 8.12 C3.29 9.22 3.46 10.32 3.63 11.45 C3.75 12.29 3.88 13.13 4 14 C4.66 14 5.32 14 6 14 C6 14.66 6 15.32 6 16 C6.66 16 7.32 16 8 16 C8 355.57 8 695.14 8 1045 C6.68 1045 5.36 1045 4 1045 C3.97 1042.9 3.95 1040.79 3.94 1038.69 C3.93 1037.52 3.91 1036.34 3.9 1035.14 C4 1032 4 1032 5 1029 C5.15 1025.34 4.99 1021.92 4.5 1018.29 C3.68 1011.07 3.87 1003.81 3.88 996.56 C3.88 994.88 3.88 993.2 3.88 991.51 C3.87 986.88 3.88 982.24 3.88 977.61 C3.89 972.57 3.89 967.53 3.89 962.49 C3.89 953.65 3.89 944.82 3.89 935.98 C3.9 922.85 3.91 909.71 3.91 896.57 C3.91 875.15 3.91 853.73 3.92 832.31 C3.93 809.75 3.94 787.18 3.94 764.62 C3.94 763.94 3.94 763.26 3.94 762.56 C3.95 754.96 3.95 747.37 3.95 739.77 C3.95 725.72 3.95 711.68 3.95 697.63 C3.95 696.92 3.95 696.22 3.95 695.5 C3.96 662.05 3.97 628.6 3.98 595.15 C3.98 592.93 3.98 590.71 3.98 588.49 C3.99 566.2 3.99 543.91 4 521.62 C4.01 498.59 4.01 475.55 4.02 452.51 C4.02 450.29 4.02 448.07 4.02 445.85 C4.03 412.42 4.04 378.98 4.05 345.55 C4.05 344.85 4.05 344.15 4.05 343.42 C4.05 329.39 4.05 315.36 4.05 301.34 C4.05 293.75 4.05 286.16 4.06 278.58 C4.06 277.9 4.06 277.22 4.06 276.52 C4.06 253.96 4.07 231.4 4.08 208.83 C4.09 186.87 4.09 164.91 4.09 142.95 C4.1 129.88 4.1 116.82 4.11 103.76 C4.11 95.04 4.11 86.33 4.11 77.62 C4.11 72.65 4.11 67.68 4.12 62.7 C4.12 58.19 4.12 53.67 4.12 49.16 C4.12 47.52 4.12 45.89 4.12 44.26 C4.13 42.06 4.13 39.86 4.12 37.66 C4.12 35.82 4.12 35.82 4.12 33.95 C4.13 30.94 4.13 30.94 3 28 C2.63 25.33 2.3 22.67 2 20 C1.91 19.24 1.83 18.49 1.74 17.71 C1.07 11.81 0.49 5.91 0 0 Z " fill="#E63E44" transform="translate(1230,109)"/>
<path d="M0 0 C0.33 0 0.66 0 1 0 C0.99 1.06 0.98 2.12 0.96 3.21 C0.96 4.6 0.95 5.99 0.94 7.38 C0.93 8.07 0.92 8.77 0.91 9.49 C0.82 13.37 0.82 13.37 2 17 C2.06 22.63 0.84 27.09 -2.06 31.88 C-4.2 36.72 -4.13 42.21 -4.13 47.42 C-4.13 48.67 -4.13 49.93 -4.13 51.23 C-4.13 52.61 -4.13 53.99 -4.13 55.38 C-4.13 56.86 -4.13 58.35 -4.13 59.83 C-4.13 63.92 -4.13 68.01 -4.13 72.1 C-4.13 76.54 -4.13 80.98 -4.13 85.43 C-4.14 93.22 -4.14 101.02 -4.13 108.81 C-4.13 120.41 -4.13 132 -4.13 143.59 C-4.14 164.31 -4.14 185.03 -4.14 205.74 C-4.13 223.89 -4.13 242.05 -4.13 260.2 C-4.13 261.41 -4.13 262.61 -4.13 263.85 C-4.13 268.74 -4.13 273.63 -4.14 278.52 C-4.14 324.42 -4.14 370.33 -4.13 416.24 C-4.13 456.94 -4.13 497.65 -4.13 538.35 C-4.14 584.11 -4.14 629.87 -4.13 675.63 C-4.13 680.53 -4.13 685.42 -4.13 690.31 C-4.13 691.52 -4.13 692.72 -4.13 693.96 C-4.13 712.07 -4.13 730.17 -4.14 748.28 C-4.14 768.92 -4.14 789.56 -4.13 810.2 C-4.13 820.72 -4.13 831.23 -4.13 841.75 C-4.14 852.29 -4.13 862.84 -4.13 873.39 C-4.13 876.07 -4.13 878.74 -4.13 881.42 C-4.12 897.88 -4.08 914.34 -3.66 930.8 C-3.63 931.97 -3.6 933.14 -3.57 934.35 C-3.44 939.55 -3.28 944.75 -3.09 949.95 C-3.03 951.67 -2.98 953.39 -2.92 955.12 C-2.88 955.87 -2.85 956.63 -2.81 957.41 C-2.72 960.6 -2.82 962.67 -4.38 965.49 C-6 967 -6 967 -8 967 C-8 652.84 -8 338.68 -8 15 C-7.34 15 -6.68 15 -6 15 C-5.71 13.95 -5.42 12.9 -5.12 11.81 C-4.23 8.77 -3.24 5.91 -2 3 C-1.34 3 -0.68 3 0 3 C0 2.01 0 1.02 0 0 Z " fill="#E53E44" transform="translate(8,107)"/>
<path d="M0 0 C0.33 0.99 0.66 1.98 1 3 C-0.42 4.92 -2.06 6.5 -3.75 8.18 C-4.16 8.78 -4.57 9.38 -5 10 C-4.67 11.32 -4.34 12.64 -4 14 C-1.03 12.35 1.94 10.7 5 9 C5.68 9.48 6.37 9.96 7.07 10.46 C19.69 17.1 41.68 13.14 55.71 13.13 C59.63 13.13 63.54 13.13 67.46 13.13 C74.31 13.14 81.16 13.14 88.01 13.13 C98.2 13.13 108.38 13.13 118.57 13.13 C136.76 13.14 154.95 13.14 173.14 13.14 C189.05 13.13 204.96 13.13 220.87 13.13 C221.93 13.13 222.98 13.13 224.07 13.13 C228.36 13.13 232.65 13.13 236.93 13.14 C277.12 13.14 317.31 13.14 357.49 13.13 C393.21 13.13 428.93 13.13 464.64 13.13 C504.78 13.14 544.91 13.14 585.04 13.13 C589.32 13.13 593.59 13.13 597.87 13.13 C598.92 13.13 599.97 13.13 601.06 13.13 C616.97 13.13 632.88 13.13 648.79 13.14 C666.87 13.14 684.95 13.14 703.03 13.13 C713.15 13.13 723.27 13.13 733.4 13.13 C740.15 13.14 746.9 13.13 753.66 13.13 C757.51 13.13 761.36 13.13 765.22 13.13 C769.36 13.13 773.5 13.13 777.64 13.13 C779.45 13.13 779.45 13.13 781.3 13.13 C782.4 13.13 783.5 13.13 784.63 13.13 C786.05 13.13 786.05 13.13 787.5 13.13 C789.82 13.01 791.77 12.62 794 12 C795.59 11.86 797.18 11.75 798.77 11.68 C799.66 11.64 800.54 11.6 801.46 11.56 C802.38 11.52 803.3 11.48 804.25 11.44 C805.19 11.39 806.12 11.35 807.09 11.31 C809.39 11.2 811.7 11.1 814 11 C814.33 11.99 814.66 12.98 815 14 C814.22 13.98 813.43 13.96 812.62 13.94 C810.02 13.81 810.02 13.81 808 15 C807.2 14.78 807.2 14.78 806.38 14.56 C800.47 13.16 795.58 13.87 790 16 C789.34 16 788.68 16 788 16 C788 16.66 788 17.32 788 18 C525.32 18 262.64 18 -8 18 C-8 9.19 -5.42 6.3 0 0 Z " fill="#E63E44" transform="translate(305,1262)"/>
<path d="M0 0 C0.69 -0 1.38 -0.01 2.09 -0.01 C4.42 -0.02 6.75 -0.01 9.08 0 C10.77 -0 12.46 -0.01 14.15 -0.01 C18.82 -0.02 23.49 -0.02 28.16 -0 C33.23 0 38.29 -0 43.36 -0.01 C52.26 -0.02 61.15 -0.02 70.04 -0.01 C83.27 0 96.49 0 109.72 -0.01 C131.96 -0.02 154.2 -0.01 176.45 -0 C198.48 0.01 220.52 0.01 242.55 0.01 C243.93 0.01 245.32 0.01 246.7 0.01 C252.26 0.01 257.81 0.01 263.37 0.01 C278.9 0.01 294.43 0.01 309.97 0.01 C310.67 0.01 311.38 0.01 312.11 0.01 C334.66 0.01 357.2 0.02 379.75 0.02 C380.48 0.03 381.21 0.03 381.97 0.03 C393.85 0.03 405.73 0.03 417.61 0.04 C464.73 0.06 511.85 0.06 558.97 0.06 C561.95 0.06 564.93 0.06 567.9 0.06 C569.01 0.06 569.01 0.06 570.14 0.06 C578.29 0.06 586.44 0.06 594.59 0.06 C595.32 0.06 596.06 0.06 596.81 0.05 C636.26 0.05 675.71 0.06 715.15 0.06 C716.54 0.07 717.94 0.07 719.33 0.07 C720.36 0.07 720.36 0.07 721.41 0.07 C722.79 0.07 724.18 0.07 725.57 0.07 C729.02 0.07 732.48 0.07 735.93 0.07 C751.09 0.07 766.24 0.07 781.39 0.07 C782.08 0.07 782.76 0.07 783.46 0.07 C786.91 0.07 790.35 0.07 793.79 0.07 C818.64 0.07 843.48 0.07 868.33 0.09 C881.48 0.1 894.64 0.1 907.79 0.09 C916.56 0.09 925.33 0.1 934.1 0.11 C939.11 0.11 944.12 0.11 949.12 0.11 C953.67 0.1 958.22 0.11 962.77 0.12 C964.41 0.12 966.05 0.12 967.69 0.11 C969.91 0.11 972.13 0.11 974.35 0.12 C975.58 0.12 976.81 0.12 978.08 0.12 C981.1 0.37 982.61 0.88 985.17 2.37 C987.5 3.07 989.83 3.74 992.17 4.37 C991.84 5.36 991.51 6.35 991.17 7.37 C985.57 8.42 980.63 8.27 974.99 7.62 C974.21 7.55 973.44 7.48 972.64 7.4 C968.2 6.92 964.1 6.09 959.81 4.84 C952.49 2.99 945.4 3.02 937.89 3.14 C936.36 3.15 934.82 3.16 933.29 3.17 C929.94 3.19 926.59 3.22 923.23 3.26 C917.65 3.33 912.06 3.37 906.47 3.41 C898.08 3.47 889.69 3.53 881.3 3.61 C857.62 3.81 833.93 3.95 810.25 4.07 C808.22 4.08 806.18 4.09 804.15 4.1 C727.41 4.52 650.67 4.36 573.92 4.21 C561.05 4.19 548.17 4.16 535.3 4.14 C471.06 4.03 406.83 3.9 342.6 3.77 C333.1 3.75 323.6 3.73 314.1 3.71 C313.06 3.7 312.01 3.7 310.94 3.7 C287.11 3.65 263.28 3.6 239.45 3.56 C238.45 3.56 237.45 3.56 236.42 3.55 C226.46 3.54 216.49 3.52 206.52 3.5 C185.26 3.47 163.99 3.42 142.73 3.37 C127.39 3.33 112.05 3.3 96.71 3.28 C87.62 3.27 78.54 3.25 69.45 3.22 C63.39 3.2 57.33 3.19 51.27 3.19 C47.82 3.18 44.37 3.18 40.92 3.16 C37.21 3.15 33.5 3.15 29.78 3.15 C28.18 3.14 28.18 3.14 26.54 3.13 C20.7 3.14 15.79 3.8 10.17 5.37 C6.32 5.39 6.32 5.39 2.55 5.06 C1.3 4.96 0.05 4.86 -1.24 4.76 C-4.47 4.41 -7.63 3.95 -10.83 3.37 C-7.33 0.09 -4.71 -0 0 0 Z " fill="#E53D43" transform="translate(133.8272762298584,-0.3748968243598938)"/>
<path d="M0 0 C4 2 4 2 5.72 3.05 C8.8 4.33 11.38 4.26 14.71 4.28 C15.38 4.28 16.05 4.29 16.75 4.3 C19 4.31 21.25 4.32 23.51 4.32 C25.13 4.33 26.74 4.34 28.36 4.35 C32.75 4.38 37.13 4.39 41.52 4.4 C46.11 4.42 50.69 4.45 55.28 4.47 C63.96 4.52 72.65 4.56 81.33 4.59 C91.22 4.63 101.1 4.68 110.99 4.73 C131.33 4.83 151.66 4.92 172 5 C172 5.33 172 5.66 172 6 C150.46 6.09 128.92 6.16 107.38 6.21 C97.38 6.23 87.38 6.26 77.38 6.3 C68.66 6.34 59.94 6.37 51.22 6.38 C46.61 6.38 41.99 6.39 37.38 6.42 C33.03 6.45 28.69 6.46 24.34 6.45 C22.75 6.45 21.15 6.46 19.56 6.48 C17.38 6.5 15.2 6.49 13.02 6.48 C11.2 6.49 11.2 6.49 9.33 6.49 C5.32 5.9 3.11 4.55 0 2 C0 1.34 0 0.68 0 0 Z " fill="#F1C0C3" transform="translate(1000,228)"/>
<path d="M0 0 C3.42 -0.06 6.83 -0.09 10.25 -0.12 C11.22 -0.14 12.19 -0.16 13.18 -0.18 C14.12 -0.18 15.05 -0.19 16.02 -0.2 C16.87 -0.21 17.73 -0.22 18.62 -0.23 C21.22 0.02 22.73 0.75 25 2 C27.32 2.7 29.66 3.37 32 4 C31.67 4.99 31.34 5.98 31 7 C29.54 6.89 28.08 6.76 26.62 6.62 C25.41 6.52 25.41 6.52 24.16 6.41 C22 6 22 6 20 4 C17.53 3.96 15.15 4 12.69 4.12 C5.69 4.47 5.69 4.47 2.02 1.99 C1.35 1.33 0.69 0.68 0 0 Z " fill="#EEB0B3" transform="translate(1094,0)"/>
<path d="M0 0 C0.99 -0.33 1.98 -0.66 3 -1 C3 -0.01 3 0.98 3 2 C2.01 2 1.02 2 0 2 C0 2.66 0 3.32 0 4 C-6.93 4 -13.86 4 -21 4 C-21 3.34 -21 2.68 -21 2 C-20.05 1.69 -19.1 1.38 -18.12 1.06 C-11.57 -1.17 -6.83 -1.37 0 0 Z " fill="#F1C1C4" transform="translate(1114,1276)"/>
<path d="M0 0 C3.1 -0.09 6.21 -0.14 9.31 -0.19 C10.19 -0.21 11.07 -0.24 11.98 -0.26 C13.25 -0.28 13.25 -0.28 14.55 -0.29 C15.72 -0.32 15.72 -0.32 16.92 -0.34 C19.5 0.08 20.36 1.01 22 3 C20.45 7.27 17.24 9.53 13.75 12.19 C13.19 12.64 12.63 13.09 12.05 13.55 C8.41 16.36 5.58 17.65 1 18 C3.38 15.19 6.18 13.72 9.36 11.98 C11.19 10.88 12.53 9.55 14 8 C14.66 8 15.32 8 16 8 C16.33 6.02 16.66 4.04 17 2 C11.39 1.67 5.78 1.34 0 1 C0 0.67 0 0.34 0 0 Z " fill="#E6494F" transform="translate(1179,230)"/>
<path d="M0 0 C3.06 1 3.06 1 5.44 3.56 C7.45 7.82 7.38 10.35 7.06 15 C6.4 15 5.74 15 5.06 15 C4.93 14.4 4.8 13.79 4.66 13.17 C4.48 12.37 4.31 11.57 4.12 10.75 C3.95 9.96 3.78 9.17 3.6 8.36 C3.11 6.23 2.6 4.11 2.06 2 C-0.94 2.5 -0.94 2.5 -3.94 4 C-5.24 7.03 -5.24 7.03 -5.69 10.56 C-6.06 12.72 -6.46 14.87 -6.94 17 C-7.6 17.33 -8.26 17.66 -8.94 18 C-9.5 6.09 -9.5 6.09 -5.94 2 C-2.94 0 -2.94 0 0 0 Z " fill="#E5353B" transform="translate(942.9375,49)"/>
<path d="M0 0 C4.51 1.42 6.72 3.66 10 7 C11.02 7.93 12.04 8.84 13.08 9.75 C13.6 10.22 14.12 10.68 14.66 11.15 C15.73 12.1 16.81 13.05 17.89 13.98 C22.68 18.27 22.68 18.27 23 22 C15.28 16.44 7.78 10.63 2 3 C1.34 2.67 0.68 2.34 0 2 C0 1.34 0 0.68 0 0 Z " fill="#E6666B" transform="translate(1179,33)"/>
<path d="M0 0 C1.98 0 3.96 0 6 0 C6 0.66 6 1.32 6 2 C7.03 2.27 8.06 2.54 9.12 2.81 C15.86 4.75 21.06 8.06 26 13 C21.53 13 20.78 12.1 17.41 9.51 C12.06 6.16 5.89 4.21 0 2 C0 1.34 0 0.68 0 0 Z " fill="#E53C42" transform="translate(1139,11)"/>
<path d="M0 0 C0.79 0.01 1.59 0.03 2.4 0.04 C4.35 0.08 6.3 0.13 8.25 0.19 C4.5 4.11 4.5 4.11 1.08 4.32 C-3.64 4.31 -8.11 4.17 -12.75 3.19 C-8.96 -0.7 -5.06 -0.16 0 0 Z " fill="#E99295" transform="translate(135.75,-0.1875)"/>
<path d="M0 0 C2.97 0.5 2.97 0.5 6 1 C4.68 1.33 3.36 1.66 2 2 C4.18 6.5 7.3 9.2 11.06 12.35 C12.8 13.83 14.41 15.36 16 17 C10.6 17 8.99 14.85 5.19 11.31 C4.58 10.78 3.97 10.25 3.34 9.71 C1.7 8.2 0.27 6.82 -1 5 C-0.89 2.11 -0.89 2.11 0 0 Z " fill="#E53E44" transform="translate(687,229)"/>
<path d="M0 0 C0 0.66 0 1.32 0 2 C-3.16 3.05 -5.87 3.31 -9.19 3.56 C-10.82 3.69 -10.82 3.69 -12.48 3.82 C-13.73 3.91 -13.73 3.91 -15 4 C-14.67 4.66 -14.34 5.32 -14 6 C-15.94 5.25 -15.94 5.25 -18 4 C-18.63 1.92 -18.63 1.92 -19 0 C-16.21 -0.19 -13.42 -0.38 -10.62 -0.56 C-9.83 -0.62 -9.04 -0.67 -8.22 -0.73 C-2.23 -1.11 -2.23 -1.11 0 0 Z " fill="#F0BCBF" transform="translate(708,231)"/>
<path d="M0 0 C0.33 0.33 0.66 0.66 1 1 C2.66 1.36 4.33 1.7 6 2 C6 2.66 6 3.32 6 4 C5.27 3.94 4.55 3.88 3.8 3.82 C2.29 3.69 2.29 3.69 0.75 3.56 C-2.66 3.28 -6.06 2.99 -9.47 2.71 C-11.09 2.58 -11.09 2.58 -12.75 2.44 C-15.38 2.22 -15.38 2.22 -18 2 C-17.67 1.34 -17.34 0.68 -17 0 C-11.31 -1.25 -5.67 -1.21 0 0 Z " fill="#E54046" transform="translate(1117,4)"/>
<path d="M0 0 C3.46 0.14 6.92 0.29 10.38 0.44 C11.36 0.48 12.34 0.52 13.36 0.56 C14.3 0.6 15.24 0.64 16.21 0.68 C17.08 0.72 17.95 0.76 18.85 0.79 C21 1 21 1 23 2 C23 2.99 23 3.98 23 5 C22.51 4.84 22.01 4.67 21.5 4.5 C18 3.8 14.55 3.94 11 4 C2.46 4.15 2.46 4.15 -1 3 C-0.67 2.01 -0.34 1.02 0 0 Z " fill="#F2C5C7" transform="translate(1173,230)"/>
<path d="M0 0 C5.23 0.26 7.59 2.05 11.28 5.45 C13.66 7.59 16.33 9.24 19 11 C21.04 12.62 23.02 14.3 25 16 C24.67 16.66 24.34 17.32 24 18 C23.49 17.61 22.98 17.23 22.46 16.83 C19.29 14.43 16.12 12.08 12.81 9.88 C10 8 10 8 7.44 5.94 C5.02 3.93 5.02 3.93 2.19 2.31 C1.47 1.88 0.74 1.45 0 1 C0 0.67 0 0.34 0 0 Z " fill="#E5353B" transform="translate(714,255)"/>
<path d="M0 0 C0.66 0 1.32 0 2 0 C2 0.66 2 1.32 2 2 C2.66 2 3.32 2 4 2 C4 6.29 4 10.58 4 15 C2.68 14.34 1.36 13.68 0 13 C0 8.71 0 4.42 0 0 Z " fill="#E68185" transform="translate(1234,123)"/>
<path d="M0 0 C1.41 2.82 0.69 4.61 0.12 7.69 C-0.51 11.19 -1.1 14.66 -1.5 18.19 C-1.67 19.12 -1.83 20.04 -2 21 C-2.66 21.33 -3.32 21.66 -4 22 C-4 16.72 -4 11.44 -4 6 C-3.34 6 -2.68 6 -2 6 C-1.34 4.02 -0.68 2.04 0 0 Z " fill="#E99497" transform="translate(4,116)"/>
<path d="M0 0 C0 0.99 0 1.98 0 3 C-3.3 3 -6.6 3 -10 3 C-10 3.66 -10 4.32 -10 5 C-11.98 5 -13.96 5 -16 5 C-16 4.34 -16 3.68 -16 3 C-15.05 2.69 -14.1 2.38 -13.12 2.06 C-8.12 0.36 -5.37 -0.09 0 0 Z " fill="#E68589" transform="translate(1109,1275)"/>
<path d="M0 0 C0 4.29 0 8.58 0 13 C-1.32 13 -2.64 13 -4 13 C-4.47 4.84 -4.47 4.84 -2.56 1.44 C-1 0 -1 0 0 0 Z " fill="#E68286" transform="translate(1238,1141)"/>
<path d="M0 0 C3.96 0 7.92 0 12 0 C12.33 0.99 12.66 1.98 13 3 C11.23 3.2 9.46 3.38 7.69 3.56 C6.7 3.67 5.72 3.77 4.7 3.88 C2 4 2 4 -1 3 C-0.67 2.01 -0.34 1.02 0 0 Z " fill="#E54349" transform="translate(117,3)"/>
<path d="M0 0 C4.95 0.33 9.9 0.66 15 1 C15.33 1.99 15.66 2.98 16 4 C14.27 4.11 12.54 4.19 10.81 4.25 C9.85 4.3 8.89 4.34 7.89 4.39 C5 4 5 4 0 0 Z " fill="#E67F83" transform="translate(1094,0)"/>
<path d="M0 0 C0.33 0.99 0.66 1.98 1 3 C-0.18 2.97 -0.18 2.97 -1.38 2.94 C-3.98 2.81 -3.98 2.81 -6 4 C-6.54 3.86 -7.07 3.71 -7.62 3.56 C-11.59 2.62 -16.31 2.15 -20 4 C-20.66 3.34 -21.32 2.68 -22 2 C-19.13 0.57 -16.44 0.65 -13.25 0.44 C-12.04 0.35 -10.83 0.27 -9.58 0.18 C-6.38 0.02 -3.2 -0.03 0 0 Z " fill="#E64E53" transform="translate(1119,1273)"/>
<path d="M0 0 C2.12 0.94 2.12 0.94 4 2 C4.33 6.24 4.44 8.36 2 11.94 C1.34 12.62 0.68 13.3 0 14 C-0.66 13.67 -1.32 13.34 -2 13 C-0.68 10.36 0.64 7.72 2 5 C0.35 4.67 -1.3 4.34 -3 4 C-2.67 3.01 -2.34 2.02 -2 1 C-1.34 0.67 -0.68 0.34 0 0 Z " fill="#E66368" transform="translate(715,595)"/>
<path d="M0 0 C4.07 4.07 4.25 11.43 5 17 C4.97 20.41 4.65 23.65 4 27 C3.67 27 3.34 27 3 27 C2.49 23.44 2 19.88 1.5 16.31 C1.36 15.31 1.21 14.3 1.07 13.26 C0.93 12.28 0.8 11.31 0.66 10.3 C0.53 9.41 0.4 8.51 0.28 7.59 C0 5.04 -0.05 2.56 0 0 Z " fill="#E64147" transform="translate(1230,109)"/>
<path d="M0 0 C0.66 0 1.32 0 2 0 C3.12 2.31 3.12 2.31 4 5 C3.01 6.49 3.01 6.49 2 8 C-1.67 7.29 -4.7 5.72 -8 4 C-4.99 3.07 -4.13 2.96 -1 4 C-0.67 2.68 -0.34 1.36 0 0 Z " fill="#E76065" transform="translate(1101,527)"/>
<path d="M0 0 C2.52 2.52 2.79 4.42 3.62 7.88 C3.89 8.92 4.15 9.97 4.41 11.05 C5 14 5 14 5 18 C4.34 18 3.68 18 3 18 C2.49 16.13 1.99 14.25 1.5 12.38 C1.08 10.81 1.08 10.81 0.66 9.21 C0.01 6.04 -0.12 3.22 0 0 Z " fill="#E5353C" transform="translate(1079,460)"/>
<path d="M0 0 C0.66 0 1.32 0 2 0 C1.38 2.65 0.76 5.29 0.12 7.94 C-0.05 8.69 -0.22 9.45 -0.4 10.22 C-0.87 12.17 -1.43 14.09 -2 16 C-2.66 16.33 -3.32 16.66 -4 17 C-4.55 5.27 -4.55 5.27 -1 1 C-0.67 0.67 -0.34 0.34 0 0 Z " fill="#E64147" transform="translate(938,50)"/>
<path d="M0 0 C0.33 0 0.66 0 1 0 C2.41 7.69 1.23 13.55 -1 21 C-1.33 21 -1.66 21 -2 21 C-2.24 13.77 -1.34 7.1 0 0 Z " fill="#E64147" transform="translate(1233,1147)"/>
<path d="M0 0 C1.56 2.84 2.34 5.31 2.88 8.5 C3.68 12.42 4.73 14.49 8 17 C5.04 16.39 3.62 15.75 1 14 C0.23 11.5 0.23 11.5 -0.25 8.56 C-0.42 7.59 -0.59 6.63 -0.77 5.63 C-1 3 -1 3 0 0 Z " fill="#E53E44" transform="translate(999,214)"/>
<path d="M0 0 C0.33 0 0.66 0 1 0 C1.33 2.64 1.66 5.28 2 8 C2.99 7.67 3.98 7.34 5 7 C7.1 9.36 7.97 10.55 8.19 13.75 C8.13 14.49 8.06 15.23 8 16 C7.67 15.01 7.34 14.02 7 13 C6.34 13 5.68 13 5 13 C0.41 8.97 0.41 8.97 -0.88 5.94 C-1.02 3.75 -0.67 2.08 0 0 Z " fill="#F1C0C3" transform="translate(1222,84)"/>
<path d="M0 0 C0 3 0 3 -1.38 4.69 C-3 6 -3 6 -5 6 C-5.05 6.7 -5.1 7.4 -5.15 8.12 C-5.22 9.03 -5.3 9.94 -5.38 10.88 C-5.44 11.78 -5.51 12.68 -5.59 13.62 C-6 16 -6 16 -8 18 C-8.99 17.67 -9.98 17.34 -11 17 C-10.55 16.51 -10.09 16.01 -9.62 15.5 C-8.04 13.07 -7.69 11.83 -7.19 9.06 C-6.17 4.34 -3.89 2.7 0 0 Z " fill="#E64D53" transform="translate(412,1092)"/>
<path d="M0 0 C0.66 0 1.32 0 2 0 C1.67 2.97 1.34 5.94 1 9 C-0.98 9.66 -2.96 10.32 -5 11 C-4.62 9.06 -4.62 9.06 -4 7 C-3.34 6.67 -2.68 6.34 -2 6 C-1.27 4.02 -0.6 2.02 0 0 Z " fill="#E53D44" transform="translate(495,954)"/>
<path d="M0 0 C5.26 0.38 9.31 2.23 13 6 C13 6.99 13 7.98 13 9 C7.97 7.43 3.97 4.38 0 1 C0 0.67 0 0.34 0 0 Z " fill="#E5464C" transform="translate(965,438)"/>
<path d="M0 0 C2.48 0.5 2.48 0.5 5 1 C5.66 4.3 6.32 7.6 7 11 C4 10 4 10 2.83 7.71 C2.5 6.8 2.16 5.88 1.81 4.94 C1.47 4.02 1.12 3.1 0.77 2.15 C0.52 1.44 0.26 0.73 0 0 Z " fill="#E54248" transform="translate(949,69)"/>
<path d="M0 0 C2.57 2.57 2.54 4.48 3 8 C3.66 8 4.32 8 5 8 C5 9.32 5 10.64 5 12 C4.34 12 3.68 12 3 12 C3 11.34 3 10.68 3 10 C2.34 10 1.68 10 1 10 C0.64 8.52 0.29 7.04 -0.06 5.56 C-0.26 4.74 -0.46 3.92 -0.66 3.07 C-0.83 2.04 -0.83 2.04 -1 1 C-0.67 0.67 -0.34 0.34 0 0 Z " fill="#F1C3C6" transform="translate(1233,113)"/>
<path d="M0 0 C0.66 0 1.32 0 2 0 C2 2.31 2 4.62 2 7 C0.68 7 -0.64 7 -2 7 C-1.34 4.69 -0.68 2.38 0 0 Z M-4 7 C-3.34 7 -2.68 7 -2 7 C-2.66 8.65 -3.32 10.3 -4 12 C-4.66 12 -5.32 12 -6 12 C-5.34 10.35 -4.68 8.7 -4 7 Z " fill="#E53D43" transform="translate(486,969)"/>
<path d="M0 0 C0.72 0.1 1.44 0.21 2.19 0.31 C1.19 2.31 1.19 2.31 -1.12 3.69 C-3.88 5.21 -3.88 5.21 -6 7.5 C-6.9 8.4 -6.9 8.4 -7.81 9.31 C-8.47 9.31 -9.13 9.31 -9.81 9.31 C-7.95 4.75 -5.12 0.57 0 0 Z " fill="#E53037" transform="translate(883.8125,462.6875)"/>
<path d="M0 0 C3.28 1.49 5.93 3.39 8.75 5.62 C9.95 6.57 9.95 6.57 11.17 7.54 C11.78 8.02 12.38 8.5 13 9 C12.67 9.66 12.34 10.32 12 11 C6.99 8.02 3.61 4.56 0 0 Z " fill="#E78589" transform="translate(1013,470)"/>
<path d="M0 0 C0.99 0.33 1.98 0.66 3 1 C3 1.66 3 2.32 3 3 C5.64 3.66 8.28 4.32 11 5 C11 5.99 11 6.98 11 8 C7.48 7.68 5.47 7.38 2.69 5.12 C1 3 1 3 0 0 Z " fill="#E55C62" transform="translate(802,317)"/>
<path d="M0 0 C4.04 1.78 7.46 4.4 11 7 C9.27 7.68 9.27 7.68 7 8 C4.86 6.79 4.86 6.79 2.75 5.06 C2.04 4.5 1.34 3.93 0.61 3.35 C0.08 2.9 -0.45 2.46 -1 2 C-0.67 1.34 -0.34 0.68 0 0 Z " fill="#E5565B" transform="translate(1168,25)"/>
<path d="M0 0 C4.88 1.75 4.88 1.75 6 4 C5.91 5.55 5.76 7.09 5.56 8.62 C5.46 9.44 5.36 10.26 5.25 11.1 C5.17 11.73 5.09 12.35 5 13 C4.67 13 4.34 13 4 13 C3.96 12.37 3.93 11.75 3.89 11.1 C3.82 10.28 3.76 9.47 3.69 8.62 C3.63 7.81 3.57 7 3.51 6.16 C3.17 3.62 3.17 3.62 0 2 C0 1.34 0 0.68 0 0 Z " fill="#E6454B" transform="translate(837,344)"/>
<path d="M0 0 C0.99 0.66 1.98 1.32 3 2 C2.07 2.76 1.14 3.53 0.19 4.31 C-1.98 6.12 -4.06 7.95 -6 10 C-6.33 9.01 -6.66 8.02 -7 7 C-4.69 4.69 -2.38 2.38 0 0 Z " fill="#E4333A" transform="translate(48,41)"/>
<path d="M0 0 C3.18 1.32 6.07 3.21 9 5 C8.67 5.66 8.34 6.32 8 7 C4 5.63 1.2 3.74 -2 1 C-1.34 0.67 -0.68 0.34 0 0 Z " fill="#E65D62" transform="translate(1035,487)"/>
</svg>
